<svg xmlns="http://www.w3.org/2000/svg" width="660" height="660" viewBox="0 0 660 660" shape-rendering="crispEdges">
<rect width="660" height="660" fill="white"/>
<rect x="80" y="80" width="20" height="20" fill="black"/>
<rect x="100" y="80" width="20" height="20" fill="black"/>
<rect x="120" y="80" width="20" height="20" fill="black"/>
<rect x="140" y="80" width="20" height="20" fill="black"/>
<rect x="160" y="80" width="20" height="20" fill="black"/>
<rect x="180" y="80" width="20" height="20" fill="black"/>
<rect x="200" y="80" width="20" height="20" fill="black"/>
<rect x="240" y="80" width="20" height="20" fill="black"/>
<rect x="260" y="80" width="20" height="20" fill="black"/>
<rect x="280" y="80" width="20" height="20" fill="black"/>
<rect x="360" y="80" width="20" height="20" fill="black"/>
<rect x="440" y="80" width="20" height="20" fill="black"/>
<rect x="460" y="80" width="20" height="20" fill="black"/>
<rect x="480" y="80" width="20" height="20" fill="black"/>
<rect x="500" y="80" width="20" height="20" fill="black"/>
<rect x="520" y="80" width="20" height="20" fill="black"/>
<rect x="540" y="80" width="20" height="20" fill="black"/>
<rect x="560" y="80" width="20" height="20" fill="black"/>
<rect x="80" y="100" width="20" height="20" fill="black"/>
<rect x="100" y="100" width="20" height="20" fill="black"/>
<rect x="120" y="100" width="20" height="20" fill="black"/>
<rect x="140" y="100" width="20" height="20" fill="black"/>
<rect x="160" y="100" width="20" height="20" fill="black"/>
<rect x="180" y="100" width="20" height="20" fill="black"/>
<rect x="200" y="100" width="20" height="20" fill="black"/>
<rect x="260" y="100" width="20" height="20" fill="black"/>
<rect x="280" y="100" width="20" height="20" fill="black"/>
<rect x="300" y="100" width="20" height="20" fill="black"/>
<rect x="340" y="100" width="20" height="20" fill="black"/>
<rect x="440" y="100" width="20" height="20" fill="black"/>
<rect x="460" y="100" width="20" height="20" fill="black"/>
<rect x="480" y="100" width="20" height="20" fill="black"/>
<rect x="500" y="100" width="20" height="20" fill="black"/>
<rect x="520" y="100" width="20" height="20" fill="black"/>
<rect x="540" y="100" width="20" height="20" fill="black"/>
<rect x="560" y="100" width="20" height="20" fill="black"/>
<rect x="80" y="120" width="20" height="20" fill="black"/>
<rect x="100" y="120" width="20" height="20" fill="black"/>
<rect x="120" y="120" width="20" height="20" fill="black"/>
<rect x="140" y="120" width="20" height="20" fill="black"/>
<rect x="160" y="120" width="20" height="20" fill="black"/>
<rect x="180" y="120" width="20" height="20" fill="black"/>
<rect x="200" y="120" width="20" height="20" fill="black"/>
<rect x="240" y="120" width="20" height="20" fill="black"/>
<rect x="320" y="120" width="20" height="20" fill="black"/>
<rect x="380" y="120" width="20" height="20" fill="black"/>
<rect x="440" y="120" width="20" height="20" fill="black"/>
<rect x="460" y="120" width="20" height="20" fill="black"/>
<rect x="480" y="120" width="20" height="20" fill="black"/>
<rect x="500" y="120" width="20" height="20" fill="black"/>
<rect x="520" y="120" width="20" height="20" fill="black"/>
<rect x="540" y="120" width="20" height="20" fill="black"/>
<rect x="560" y="120" width="20" height="20" fill="black"/>
<rect x="80" y="140" width="20" height="20" fill="black"/>
<rect x="100" y="140" width="20" height="20" fill="black"/>
<rect x="120" y="140" width="20" height="20" fill="black"/>
<rect x="140" y="140" width="20" height="20" fill="black"/>
<rect x="160" y="140" width="20" height="20" fill="black"/>
<rect x="180" y="140" width="20" height="20" fill="black"/>
<rect x="200" y="140" width="20" height="20" fill="black"/>
<rect x="260" y="140" width="20" height="20" fill="black"/>
<rect x="280" y="140" width="20" height="20" fill="black"/>
<rect x="340" y="140" width="20" height="20" fill="black"/>
<rect x="400" y="140" width="20" height="20" fill="black"/>
<rect x="440" y="140" width="20" height="20" fill="black"/>
<rect x="460" y="140" width="20" height="20" fill="black"/>
<rect x="480" y="140" width="20" height="20" fill="black"/>
<rect x="500" y="140" width="20" height="20" fill="black"/>
<rect x="520" y="140" width="20" height="20" fill="black"/>
<rect x="540" y="140" width="20" height="20" fill="black"/>
<rect x="560" y="140" width="20" height="20" fill="black"/>
<rect x="80" y="160" width="20" height="20" fill="black"/>
<rect x="100" y="160" width="20" height="20" fill="black"/>
<rect x="120" y="160" width="20" height="20" fill="black"/>
<rect x="140" y="160" width="20" height="20" fill="black"/>
<rect x="160" y="160" width="20" height="20" fill="black"/>
<rect x="180" y="160" width="20" height="20" fill="black"/>
<rect x="200" y="160" width="20" height="20" fill="black"/>
<rect x="240" y="160" width="20" height="20" fill="black"/>
<rect x="300" y="160" width="20" height="20" fill="black"/>
<rect x="320" y="160" width="20" height="20" fill="black"/>
<rect x="340" y="160" width="20" height="20" fill="black"/>
<rect x="400" y="160" width="20" height="20" fill="black"/>
<rect x="440" y="160" width="20" height="20" fill="black"/>
<rect x="460" y="160" width="20" height="20" fill="black"/>
<rect x="480" y="160" width="20" height="20" fill="black"/>
<rect x="500" y="160" width="20" height="20" fill="black"/>
<rect x="520" y="160" width="20" height="20" fill="black"/>
<rect x="540" y="160" width="20" height="20" fill="black"/>
<rect x="560" y="160" width="20" height="20" fill="black"/>
<rect x="80" y="180" width="20" height="20" fill="black"/>
<rect x="100" y="180" width="20" height="20" fill="black"/>
<rect x="120" y="180" width="20" height="20" fill="black"/>
<rect x="140" y="180" width="20" height="20" fill="black"/>
<rect x="160" y="180" width="20" height="20" fill="black"/>
<rect x="180" y="180" width="20" height="20" fill="black"/>
<rect x="200" y="180" width="20" height="20" fill="black"/>
<rect x="240" y="180" width="20" height="20" fill="black"/>
<rect x="320" y="180" width="20" height="20" fill="black"/>
<rect x="360" y="180" width="20" height="20" fill="black"/>
<rect x="380" y="180" width="20" height="20" fill="black"/>
<rect x="400" y="180" width="20" height="20" fill="black"/>
<rect x="440" y="180" width="20" height="20" fill="black"/>
<rect x="460" y="180" width="20" height="20" fill="black"/>
<rect x="480" y="180" width="20" height="20" fill="black"/>
<rect x="500" y="180" width="20" height="20" fill="black"/>
<rect x="520" y="180" width="20" height="20" fill="black"/>
<rect x="540" y="180" width="20" height="20" fill="black"/>
<rect x="560" y="180" width="20" height="20" fill="black"/>
<rect x="80" y="200" width="20" height="20" fill="black"/>
<rect x="100" y="200" width="20" height="20" fill="black"/>
<rect x="120" y="200" width="20" height="20" fill="black"/>
<rect x="140" y="200" width="20" height="20" fill="black"/>
<rect x="160" y="200" width="20" height="20" fill="black"/>
<rect x="180" y="200" width="20" height="20" fill="black"/>
<rect x="200" y="200" width="20" height="20" fill="black"/>
<rect x="240" y="200" width="20" height="20" fill="black"/>
<rect x="280" y="200" width="20" height="20" fill="black"/>
<rect x="320" y="200" width="20" height="20" fill="black"/>
<rect x="360" y="200" width="20" height="20" fill="black"/>
<rect x="400" y="200" width="20" height="20" fill="black"/>
<rect x="440" y="200" width="20" height="20" fill="black"/>
<rect x="460" y="200" width="20" height="20" fill="black"/>
<rect x="480" y="200" width="20" height="20" fill="black"/>
<rect x="500" y="200" width="20" height="20" fill="black"/>
<rect x="520" y="200" width="20" height="20" fill="black"/>
<rect x="540" y="200" width="20" height="20" fill="black"/>
<rect x="560" y="200" width="20" height="20" fill="black"/>
<rect x="320" y="220" width="20" height="20" fill="black"/>
<rect x="380" y="220" width="20" height="20" fill="black"/>
<rect x="80" y="240" width="20" height="20" fill="black"/>
<rect x="100" y="240" width="20" height="20" fill="black"/>
<rect x="120" y="240" width="20" height="20" fill="black"/>
<rect x="160" y="240" width="20" height="20" fill="black"/>
<rect x="180" y="240" width="20" height="20" fill="black"/>
<rect x="200" y="240" width="20" height="20" fill="black"/>
<rect x="260" y="240" width="20" height="20" fill="black"/>
<rect x="320" y="240" width="20" height="20" fill="black"/>
<rect x="400" y="240" width="20" height="20" fill="black"/>
<rect x="460" y="240" width="20" height="20" fill="black"/>
<rect x="480" y="240" width="20" height="20" fill="black"/>
<rect x="520" y="240" width="20" height="20" fill="black"/>
<rect x="560" y="240" width="20" height="20" fill="black"/>
<rect x="80" y="260" width="20" height="20" fill="black"/>
<rect x="100" y="260" width="20" height="20" fill="black"/>
<rect x="140" y="260" width="20" height="20" fill="black"/>
<rect x="280" y="260" width="20" height="20" fill="black"/>
<rect x="300" y="260" width="20" height="20" fill="black"/>
<rect x="340" y="260" width="20" height="20" fill="black"/>
<rect x="380" y="260" width="20" height="20" fill="black"/>
<rect x="400" y="260" width="20" height="20" fill="black"/>
<rect x="440" y="260" width="20" height="20" fill="black"/>
<rect x="460" y="260" width="20" height="20" fill="black"/>
<rect x="500" y="260" width="20" height="20" fill="black"/>
<rect x="560" y="260" width="20" height="20" fill="black"/>
<rect x="160" y="280" width="20" height="20" fill="black"/>
<rect x="200" y="280" width="20" height="20" fill="black"/>
<rect x="220" y="280" width="20" height="20" fill="black"/>
<rect x="260" y="280" width="20" height="20" fill="black"/>
<rect x="280" y="280" width="20" height="20" fill="black"/>
<rect x="360" y="280" width="20" height="20" fill="black"/>
<rect x="380" y="280" width="20" height="20" fill="black"/>
<rect x="400" y="280" width="20" height="20" fill="black"/>
<rect x="440" y="280" width="20" height="20" fill="black"/>
<rect x="500" y="280" width="20" height="20" fill="black"/>
<rect x="520" y="280" width="20" height="20" fill="black"/>
<rect x="560" y="280" width="20" height="20" fill="black"/>
<rect x="80" y="300" width="20" height="20" fill="black"/>
<rect x="160" y="300" width="20" height="20" fill="black"/>
<rect x="220" y="300" width="20" height="20" fill="black"/>
<rect x="240" y="300" width="20" height="20" fill="black"/>
<rect x="320" y="300" width="20" height="20" fill="black"/>
<rect x="340" y="300" width="20" height="20" fill="black"/>
<rect x="360" y="300" width="20" height="20" fill="black"/>
<rect x="400" y="300" width="20" height="20" fill="black"/>
<rect x="440" y="300" width="20" height="20" fill="black"/>
<rect x="460" y="300" width="20" height="20" fill="black"/>
<rect x="500" y="300" width="20" height="20" fill="black"/>
<rect x="180" y="320" width="20" height="20" fill="black"/>
<rect x="200" y="320" width="20" height="20" fill="black"/>
<rect x="240" y="320" width="20" height="20" fill="black"/>
<rect x="260" y="320" width="20" height="20" fill="black"/>
<rect x="360" y="320" width="20" height="20" fill="black"/>
<rect x="380" y="320" width="20" height="20" fill="black"/>
<rect x="400" y="320" width="20" height="20" fill="black"/>
<rect x="420" y="320" width="20" height="20" fill="black"/>
<rect x="440" y="320" width="20" height="20" fill="black"/>
<rect x="460" y="320" width="20" height="20" fill="black"/>
<rect x="500" y="320" width="20" height="20" fill="black"/>
<rect x="540" y="320" width="20" height="20" fill="black"/>
<rect x="560" y="320" width="20" height="20" fill="black"/>
<rect x="160" y="340" width="20" height="20" fill="black"/>
<rect x="220" y="340" width="20" height="20" fill="black"/>
<rect x="240" y="340" width="20" height="20" fill="black"/>
<rect x="260" y="340" width="20" height="20" fill="black"/>
<rect x="280" y="340" width="20" height="20" fill="black"/>
<rect x="300" y="340" width="20" height="20" fill="black"/>
<rect x="360" y="340" width="20" height="20" fill="black"/>
<rect x="380" y="340" width="20" height="20" fill="black"/>
<rect x="420" y="340" width="20" height="20" fill="black"/>
<rect x="460" y="340" width="20" height="20" fill="black"/>
<rect x="500" y="340" width="20" height="20" fill="black"/>
<rect x="560" y="340" width="20" height="20" fill="black"/>
<rect x="140" y="360" width="20" height="20" fill="black"/>
<rect x="160" y="360" width="20" height="20" fill="black"/>
<rect x="180" y="360" width="20" height="20" fill="black"/>
<rect x="200" y="360" width="20" height="20" fill="black"/>
<rect x="220" y="360" width="20" height="20" fill="black"/>
<rect x="260" y="360" width="20" height="20" fill="black"/>
<rect x="280" y="360" width="20" height="20" fill="black"/>
<rect x="340" y="360" width="20" height="20" fill="black"/>
<rect x="400" y="360" width="20" height="20" fill="black"/>
<rect x="440" y="360" width="20" height="20" fill="black"/>
<rect x="500" y="360" width="20" height="20" fill="black"/>
<rect x="520" y="360" width="20" height="20" fill="black"/>
<rect x="560" y="360" width="20" height="20" fill="black"/>
<rect x="120" y="380" width="20" height="20" fill="black"/>
<rect x="140" y="380" width="20" height="20" fill="black"/>
<rect x="180" y="380" width="20" height="20" fill="black"/>
<rect x="220" y="380" width="20" height="20" fill="black"/>
<rect x="300" y="380" width="20" height="20" fill="black"/>
<rect x="380" y="380" width="20" height="20" fill="black"/>
<rect x="400" y="380" width="20" height="20" fill="black"/>
<rect x="420" y="380" width="20" height="20" fill="black"/>
<rect x="500" y="380" width="20" height="20" fill="black"/>
<rect x="120" y="400" width="20" height="20" fill="black"/>
<rect x="160" y="400" width="20" height="20" fill="black"/>
<rect x="200" y="400" width="20" height="20" fill="black"/>
<rect x="220" y="400" width="20" height="20" fill="black"/>
<rect x="240" y="400" width="20" height="20" fill="black"/>
<rect x="320" y="400" width="20" height="20" fill="black"/>
<rect x="380" y="400" width="20" height="20" fill="black"/>
<rect x="400" y="400" width="20" height="20" fill="black"/>
<rect x="420" y="400" width="20" height="20" fill="black"/>
<rect x="440" y="400" width="20" height="20" fill="black"/>
<rect x="460" y="400" width="20" height="20" fill="black"/>
<rect x="480" y="400" width="20" height="20" fill="black"/>
<rect x="500" y="400" width="20" height="20" fill="black"/>
<rect x="240" y="420" width="20" height="20" fill="black"/>
<rect x="260" y="420" width="20" height="20" fill="black"/>
<rect x="300" y="420" width="20" height="20" fill="black"/>
<rect x="320" y="420" width="20" height="20" fill="black"/>
<rect x="340" y="420" width="20" height="20" fill="black"/>
<rect x="380" y="420" width="20" height="20" fill="black"/>
<rect x="400" y="420" width="20" height="20" fill="black"/>
<rect x="480" y="420" width="20" height="20" fill="black"/>
<rect x="560" y="420" width="20" height="20" fill="black"/>
<rect x="80" y="440" width="20" height="20" fill="black"/>
<rect x="100" y="440" width="20" height="20" fill="black"/>
<rect x="120" y="440" width="20" height="20" fill="black"/>
<rect x="140" y="440" width="20" height="20" fill="black"/>
<rect x="160" y="440" width="20" height="20" fill="black"/>
<rect x="180" y="440" width="20" height="20" fill="black"/>
<rect x="200" y="440" width="20" height="20" fill="black"/>
<rect x="260" y="440" width="20" height="20" fill="black"/>
<rect x="280" y="440" width="20" height="20" fill="black"/>
<rect x="300" y="440" width="20" height="20" fill="black"/>
<rect x="320" y="440" width="20" height="20" fill="black"/>
<rect x="360" y="440" width="20" height="20" fill="black"/>
<rect x="380" y="440" width="20" height="20" fill="black"/>
<rect x="400" y="440" width="20" height="20" fill="black"/>
<rect x="440" y="440" width="20" height="20" fill="black"/>
<rect x="480" y="440" width="20" height="20" fill="black"/>
<rect x="560" y="440" width="20" height="20" fill="black"/>
<rect x="80" y="460" width="20" height="20" fill="black"/>
<rect x="100" y="460" width="20" height="20" fill="black"/>
<rect x="120" y="460" width="20" height="20" fill="black"/>
<rect x="140" y="460" width="20" height="20" fill="black"/>
<rect x="160" y="460" width="20" height="20" fill="black"/>
<rect x="180" y="460" width="20" height="20" fill="black"/>
<rect x="200" y="460" width="20" height="20" fill="black"/>
<rect x="240" y="460" width="20" height="20" fill="black"/>
<rect x="280" y="460" width="20" height="20" fill="black"/>
<rect x="320" y="460" width="20" height="20" fill="black"/>
<rect x="340" y="460" width="20" height="20" fill="black"/>
<rect x="360" y="460" width="20" height="20" fill="black"/>
<rect x="400" y="460" width="20" height="20" fill="black"/>
<rect x="480" y="460" width="20" height="20" fill="black"/>
<rect x="500" y="460" width="20" height="20" fill="black"/>
<rect x="540" y="460" width="20" height="20" fill="black"/>
<rect x="560" y="460" width="20" height="20" fill="black"/>
<rect x="80" y="480" width="20" height="20" fill="black"/>
<rect x="100" y="480" width="20" height="20" fill="black"/>
<rect x="120" y="480" width="20" height="20" fill="black"/>
<rect x="140" y="480" width="20" height="20" fill="black"/>
<rect x="160" y="480" width="20" height="20" fill="black"/>
<rect x="180" y="480" width="20" height="20" fill="black"/>
<rect x="200" y="480" width="20" height="20" fill="black"/>
<rect x="240" y="480" width="20" height="20" fill="black"/>
<rect x="280" y="480" width="20" height="20" fill="black"/>
<rect x="300" y="480" width="20" height="20" fill="black"/>
<rect x="360" y="480" width="20" height="20" fill="black"/>
<rect x="400" y="480" width="20" height="20" fill="black"/>
<rect x="420" y="480" width="20" height="20" fill="black"/>
<rect x="440" y="480" width="20" height="20" fill="black"/>
<rect x="460" y="480" width="20" height="20" fill="black"/>
<rect x="480" y="480" width="20" height="20" fill="black"/>
<rect x="500" y="480" width="20" height="20" fill="black"/>
<rect x="540" y="480" width="20" height="20" fill="black"/>
<rect x="80" y="500" width="20" height="20" fill="black"/>
<rect x="100" y="500" width="20" height="20" fill="black"/>
<rect x="120" y="500" width="20" height="20" fill="black"/>
<rect x="140" y="500" width="20" height="20" fill="black"/>
<rect x="160" y="500" width="20" height="20" fill="black"/>
<rect x="180" y="500" width="20" height="20" fill="black"/>
<rect x="200" y="500" width="20" height="20" fill="black"/>
<rect x="300" y="500" width="20" height="20" fill="black"/>
<rect x="360" y="500" width="20" height="20" fill="black"/>
<rect x="380" y="500" width="20" height="20" fill="black"/>
<rect x="400" y="500" width="20" height="20" fill="black"/>
<rect x="480" y="500" width="20" height="20" fill="black"/>
<rect x="500" y="500" width="20" height="20" fill="black"/>
<rect x="540" y="500" width="20" height="20" fill="black"/>
<rect x="80" y="520" width="20" height="20" fill="black"/>
<rect x="100" y="520" width="20" height="20" fill="black"/>
<rect x="120" y="520" width="20" height="20" fill="black"/>
<rect x="140" y="520" width="20" height="20" fill="black"/>
<rect x="160" y="520" width="20" height="20" fill="black"/>
<rect x="180" y="520" width="20" height="20" fill="black"/>
<rect x="200" y="520" width="20" height="20" fill="black"/>
<rect x="240" y="520" width="20" height="20" fill="black"/>
<rect x="340" y="520" width="20" height="20" fill="black"/>
<rect x="400" y="520" width="20" height="20" fill="black"/>
<rect x="480" y="520" width="20" height="20" fill="black"/>
<rect x="560" y="520" width="20" height="20" fill="black"/>
<rect x="80" y="540" width="20" height="20" fill="black"/>
<rect x="100" y="540" width="20" height="20" fill="black"/>
<rect x="120" y="540" width="20" height="20" fill="black"/>
<rect x="140" y="540" width="20" height="20" fill="black"/>
<rect x="160" y="540" width="20" height="20" fill="black"/>
<rect x="180" y="540" width="20" height="20" fill="black"/>
<rect x="200" y="540" width="20" height="20" fill="black"/>
<rect x="240" y="540" width="20" height="20" fill="black"/>
<rect x="300" y="540" width="20" height="20" fill="black"/>
<rect x="380" y="540" width="20" height="20" fill="black"/>
<rect x="400" y="540" width="20" height="20" fill="black"/>
<rect x="420" y="540" width="20" height="20" fill="black"/>
<rect x="440" y="540" width="20" height="20" fill="black"/>
<rect x="480" y="540" width="20" height="20" fill="black"/>
<rect x="500" y="540" width="20" height="20" fill="black"/>
<rect x="540" y="540" width="20" height="20" fill="black"/>
<rect x="80" y="560" width="20" height="20" fill="black"/>
<rect x="100" y="560" width="20" height="20" fill="black"/>
<rect x="120" y="560" width="20" height="20" fill="black"/>
<rect x="140" y="560" width="20" height="20" fill="black"/>
<rect x="160" y="560" width="20" height="20" fill="black"/>
<rect x="180" y="560" width="20" height="20" fill="black"/>
<rect x="200" y="560" width="20" height="20" fill="black"/>
<rect x="240" y="560" width="20" height="20" fill="black"/>
<rect x="260" y="560" width="20" height="20" fill="black"/>
<rect x="280" y="560" width="20" height="20" fill="black"/>
<rect x="320" y="560" width="20" height="20" fill="black"/>
<rect x="380" y="560" width="20" height="20" fill="black"/>
<rect x="400" y="560" width="20" height="20" fill="black"/>
<rect x="420" y="560" width="20" height="20" fill="black"/>
<rect x="440" y="560" width="20" height="20" fill="black"/>
<rect x="460" y="560" width="20" height="20" fill="black"/>
<rect x="480" y="560" width="20" height="20" fill="black"/>
<rect x="500" y="560" width="20" height="20" fill="black"/>
<rect x="540" y="560" width="20" height="20" fill="black"/>
<rect x="560" y="560" width="20" height="20" fill="black"/>
</svg>